<?xml version="1.0" standalone="no"?><!DOCTYPE svg PUBLIC "-//W3C//DTD SVG 1.1//EN" "http://www.w3.org/Graphics/SVG/1.1/DTD/svg11.dtd"><svg t="1503678485723" class="icon" style="" viewBox="0 0 1024 1024" version="1.1" xmlns="http://www.w3.org/2000/svg" p-id="3201" id="mx_n_1503678485725" xmlns:xlink="http://www.w3.org/1999/xlink" width="16" height="16"><defs><style type="text/css"></style></defs><path d="M810.666 160h-174.7C621.758 104.792 571.642 64 512 64s-109.758 40.792-123.966 96h-174.7C166.396 160 128 198.396 128 245.334v629.33C128 921.602 166.396 960 213.334 960h597.332C857.604 960 896 921.602 896 874.664v-629.33C896 198.396 857.604 160 810.666 160zM512 160c23.458 0 42.666 19.198 42.666 42.666S535.458 245.334 512 245.334s-42.666-19.2-42.666-42.668S488.542 160 512 160z m304 720H208V240h80v144h448V240h80v640z" p-id="3202" fill="#707070"></path></svg>